<svg width="156" height="197" viewBox="0 0 156 197" fill="none" xmlns="http://www.w3.org/2000/svg">
<path d="M3.05176e-05 65.6005L75.8907 109.334V196.801L3.05176e-05 152.425V65.6005Z" fill="#116880"/>
<path d="M3.05176e-05 65.6005L75.8907 109.334V196.801L3.05176e-05 152.425V65.6005Z" fill="#116880"/>
<path d="M151.569 65.7233L75.7488 21.8668L-2.08069e-06 65.6004L75.8906 109.135L151.569 65.7233Z" fill="#71B7CA"/>
<path d="M151.569 65.7233L75.7488 21.8668L-2.08069e-06 65.6004L75.8906 109.135L151.569 65.7233Z" fill="#71B7CA"/>
<path d="M151.781 65.6005L75.8907 109.334V196.801L151.781 152.425V65.6005Z" fill="#1D98B9"/>
<path d="M151.781 65.6005L75.8907 109.334V196.801L151.781 152.425V65.6005Z" fill="#1D98B9"/>
<path d="M141.424 97.0989L141.491 83.6084L92.2961 113.836L92.2962 127.032L141.424 97.0989Z" fill="#CCF4FF"/>
<path d="M141.424 97.0989L141.491 83.6084L92.2961 113.836L92.2962 127.032L141.424 97.0989Z" fill="#CCF4FF"/>
<path d="M141.128 120.252L141.195 106.761L92.0002 136.989L92.0004 150.185L141.128 120.252Z" fill="#CCF4FF"/>
<path d="M141.128 120.252L141.195 106.761L92.0002 136.989L92.0004 150.185L141.128 120.252Z" fill="#CCF4FF"/>
<path d="M141.491 143.421L141.195 129.915L92.0002 160.142L92.0004 173.338L141.491 143.421Z" fill="#CCF4FF"/>
<path d="M141.491 143.421L141.195 129.915L92.0002 160.142L92.0004 173.338L141.491 143.421Z" fill="#CCF4FF"/>
<path d="M104.765 138.433L104.189 106.761L92.0068 114.074L92.0068 145.35L104.765 138.433Z" fill="#CCF4FF"/>
<path d="M104.765 138.433L104.189 106.761L92.0068 114.074L92.0068 145.35L104.765 138.433Z" fill="#CCF4FF"/>
<path d="M141.435 141.006L140.859 109.334L128.677 116.647L128.677 147.923L141.435 141.006Z" fill="#CCF4FF"/>
<path d="M141.435 141.006L140.859 109.334L128.677 116.647L128.677 147.923L141.435 141.006Z" fill="#CCF4FF"/>
<path d="M85.0131 43.234L73.0618 36.2749L24.4541 63.8087L36.4717 70.4767L85.0131 43.234Z" fill="#E8F6FA"/>
<path d="M85.0131 43.234L73.0618 36.2749L24.4541 63.8087L36.4717 70.4767L85.0131 43.234Z" fill="#E8F6FA"/>
<path d="M105.348 54.6724L93.3968 47.7133L44.789 75.2471L56.8066 81.9152L105.348 54.6724Z" fill="#E8F6FA"/>
<path d="M105.348 54.6724L93.3968 47.7133L44.789 75.2471L56.8066 81.9152L105.348 54.6724Z" fill="#E8F6FA"/>
<path d="M128.225 67.3818L115.174 60.3251L67.6659 87.9564L79.6834 94.6245L128.225 67.3818Z" fill="#E8F6FA"/>
<path d="M128.225 67.3818L115.174 60.3251L67.6659 87.9564L79.6834 94.6245L128.225 67.3818Z" fill="#E8F6FA"/>
<path d="M69.3169 74.8718L36.9904 56.6035L24.3182 63.7288L56.711 81.706L69.3169 74.8718Z" fill="#E8F6FA"/>
<path d="M69.3169 74.8718L36.9904 56.6035L24.3182 63.7288L56.711 81.706L69.3169 74.8718Z" fill="#E8F6FA"/>
<path d="M126.509 66.6198L94.1823 48.3516L81.5102 55.4769L113.903 73.4541L126.509 66.6198Z" fill="#E8F6FA"/>
<path d="M126.509 66.6198L94.1823 48.3516L81.5102 55.4769L113.903 73.4541L126.509 66.6198Z" fill="#E8F6FA"/>
</svg>
