<svg width="22" height="16" viewBox="0 0 22 16" fill="none" xmlns="http://www.w3.org/2000/svg">
<path d="M21.54 2.42C21.4212 1.94541 21.1792 1.51057 20.8386 1.15941C20.498 0.808241 20.0707 0.553185 19.6 0.42C17.88 8.9407e-08 11 0 11 0C11 0 4.11996 2.98023e-08 2.39996 0.46C1.92921 0.593185 1.50194 0.84824 1.16131 1.19941C0.820677 1.55057 0.57875 1.98541 0.459961 2.46C0.145176 4.20556 -0.00880278 5.97631 -3.8707e-05 7.75C-0.0112594 9.53704 0.142729 11.3213 0.459961 13.08C0.590921 13.5398 0.838268 13.9581 1.17811 14.2945C1.51794 14.6308 1.93878 14.8738 2.39996 15C4.11996 15.46 11 15.46 11 15.46C11 15.46 17.88 15.46 19.6 15C20.0707 14.8668 20.498 14.6118 20.8386 14.2606C21.1792 13.9094 21.4212 13.4746 21.54 13C21.8523 11.2676 22.0063 9.51033 22 7.75C22.0112 5.96295 21.8572 4.1787 21.54 2.42Z" fill="white"/>
<path d="M8.75 11.02L14.5 7.74998L8.75 4.47998V11.02Z" fill="#F29D52"/>
</svg>
